<?xml version="1.0" encoding="UTF-8"?>
<svg width="249px" height="153px" viewBox="0 0 249 153" version="1.1" xmlns="http://www.w3.org/2000/svg" xmlns:xlink="http://www.w3.org/1999/xlink">
    <!-- Generator: Sketch 42 (36781) - http://www.bohemiancoding.com/sketch -->
    <title>login-logo copy</title>
    <desc>Created with Sketch.</desc>
    <defs>
        <polygon id="path-1" points="248.812075 44.2387297 0 44.2387297 0 0.138073223 248.812075 0.138073223"></polygon>
        <polygon id="path-3" points="81.1299592 0.0864037688 0.0573399723 0.0864037688 0.0573399723 80.9110812 81.1299592 80.9110812"></polygon>
    </defs>
    <g id="Page-1" stroke="none" stroke-width="1" fill="none" fill-rule="evenodd">
        <g id="Login" transform="translate(-559.000000, -100.000000)">
            <g id="login-logo-copy" transform="translate(559.000000, 100.000000)">
                <g id="Page-1">
                    <g id="Mobile-Portrait">
                        <g id="login-logo">
                            <g id="Group-3" transform="translate(0.000000, 93.920896)">
                                <g id="Fill-1-Clipped">
                                    <mask id="mask-2" fill="white">
                                        <use xlink:href="#path-1"></use>
                                    </mask>
                                    <g id="path-1"></g>
                                    <path d="M12.3249046,20.8196793 C15.8637585,20.8196793 17.8772443,22.6445269 17.8772443,25.3817984 L17.8772443,26.4767069 L9.88431572,26.4767069 C4.57603486,26.4767069 -6.93349103e-05,29.396463 -6.93349103e-05,35.0538362 C-6.93349103e-05,40.5280333 3.96588763,44.2389025 9.94533044,44.2389025 C13.6062138,44.2389025 16.2908616,43.326133 17.9382591,40.7108637 C17.9382591,42.4745375 19.4026125,43.9347612 21.1720393,43.9347612 C22.9414663,43.9347612 24.4058197,42.4745375 24.4058197,40.7108637 L24.4058197,25.1384854 C24.4058197,18.691036 19.8907303,14.980167 12.3249046,14.980167 C7.07763848,14.980167 4.02690236,16.9874994 2.31849013,18.8731752 C1.76935761,19.4818034 1.52529874,20.2113968 1.52529874,20.8808532 C1.52529874,22.4623878 2.8066079,23.7394355 4.3929907,23.7394355 C5.12516736,23.7394355 5.61328514,23.5572963 6.22343237,23.1311529 C7.74880043,22.0365901 9.64025683,20.8196793 12.3249046,20.8196793 L12.3249046,20.8196793 Z M11.6537427,38.7643597 C8.23691821,38.7643597 6.5895207,37.3649642 6.5895207,35.0538362 C6.5895207,32.864019 8.05387405,31.5862801 10.7385218,31.5862801 L17.8772443,31.5862801 L17.8772443,33.2894712 C17.8772443,36.6961991 14.887523,38.7643597 11.6537427,38.7643597 L11.6537427,38.7643597 Z M36.7907683,18.6298622 C36.7907683,16.8053602 35.3264151,15.3451365 33.4959733,15.3451365 C31.6655317,15.3451365 30.2011783,16.8053602 30.2011783,18.6298622 L30.2011783,40.6500354 C30.2011783,42.4745375 31.6655317,43.9347612 33.4959733,43.9347612 C35.3264151,43.9347612 36.7907683,42.4745375 36.7907683,40.6500354 L36.7907683,27.9977589 C36.7907683,23.9222658 39.1703425,21.2454772 43.3803584,21.2454772 C45.0887706,21.2454772 46.4921092,19.8467729 46.4921092,18.1435819 C46.4921092,16.4400452 45.0887706,15.0409953 43.3803584,15.0409953 C40.8177401,15.0409953 37.950048,16.5620473 36.7907683,18.9343491 L36.7907683,18.6298622 Z M53.3247182,15.8317625 L51.9213795,15.8317625 C50.3960115,15.8317625 49.175717,17.0486732 49.175717,18.5690339 C49.175717,20.0900859 50.3960115,21.3063053 51.9213795,21.3063053 L53.3247182,21.3063053 L53.3247182,35.6617732 C53.3247182,40.4675507 56.6805278,43.9347612 62.1108382,43.9347612 C63.697221,43.9347612 64.9785301,42.6573679 64.9785301,41.0754877 C64.9785301,39.4939531 63.697221,38.2169054 62.1108382,38.2169054 C61.0125732,38.2169054 59.7922787,37.426138 59.7922787,36.0267426 L59.7922787,21.3063053 L62.5379412,21.3063053 C64.0633094,21.3063053 65.2836038,20.0900859 65.2836038,18.5690339 C65.2836038,17.0486732 64.0633094,15.8317625 62.5379412,15.8317625 L59.7922787,15.8317625 L59.7922787,10.7221893 C59.7922787,8.95851556 58.3279254,7.49829187 56.5584984,7.49829187 C54.7890714,7.49829187 53.3247182,8.95851556 53.3247182,10.7221893 L53.3247182,15.8317625 Z M76.7543716,18.6298622 C76.7543716,16.8053602 75.2900183,15.3451365 73.4595766,15.3451365 C71.6291349,15.3451365 70.1647815,16.8053602 70.1647815,18.6298622 L70.1647815,40.6500354 C70.1647815,42.4745375 71.6291349,43.9347612 73.4595766,43.9347612 C75.2900183,43.9347612 76.7543716,42.4745375 76.7543716,40.6500354 L76.7543716,18.6298622 Z M73.4595766,12.0604109 C76.0221949,12.0604109 77.4255335,10.6008784 77.4255335,8.22823091 C77.4255335,5.43047687 76.0221949,4.21356619 73.4595766,4.21356619 C70.957973,4.21356619 69.5546344,5.43047687 69.5546344,8.22823091 C69.5546344,10.6008784 70.957973,12.0604109 73.4595766,12.0604109 L73.4595766,12.0604109 Z M81.5741881,29.5792935 C81.5741881,39.4939531 86.5163805,44.2389025 94.8143828,44.2389025 C99.8175901,44.2389025 103.1734,42.0490853 104.576738,40.771692 C105.308915,40.1022356 105.613989,39.3726422 105.613989,38.5210467 C105.613989,36.8786838 104.33268,35.6012904 102.685282,35.6012904 C102.075135,35.6012904 101.526002,35.7226013 100.85484,36.2092274 C99.4515017,37.2436533 97.6210601,38.6423576 94.8143828,38.6423576 C90.5433523,38.6423576 88.2247928,35.4184601 88.2247928,29.5792935 C88.2247928,23.8614377 90.5433523,20.5767119 94.8143828,20.5767119 C97.8651189,20.5767119 99.4515017,22.0970727 100.244693,22.9486682 C100.793826,23.5572963 101.526002,23.9827485 102.502238,23.9827485 C104.149635,23.9827485 105.430945,22.7053551 105.430945,21.0629923 C105.430945,20.3333989 105.2479,19.8467729 104.759783,19.1773165 C103.661518,17.7782667 100.427737,14.980167 94.8143828,14.980167 C86.5163805,14.980167 81.5741881,19.6639424 81.5741881,29.5792935 L81.5741881,29.5792935 Z M113.362165,15.3451365 C111.531723,15.3451365 110.06737,16.8053602 110.06737,18.6298622 L110.06737,32.8031909 C110.06737,38.7643597 112.324915,44.2389025 122.148285,44.2389025 C131.910641,44.2389025 134.168186,38.7643597 134.168186,32.8031909 L134.168186,18.6298622 C134.168186,16.8053602 132.703832,15.3451365 130.87339,15.3451365 C129.042949,15.3451365 127.578595,16.8053602 127.578595,18.6298622 L127.578595,32.8031909 C127.578595,35.6012904 126.602707,38.2777337 122.148285,38.2777337 C117.633196,38.2777337 116.65696,35.6012904 116.65696,32.8031909 L116.65696,18.6298622 C116.65696,16.8053602 115.192607,15.3451365 113.362165,15.3451365 L113.362165,15.3451365 Z M143.56376,0.138073223 C141.733318,0.138073223 140.269311,1.59829691 140.269311,3.4227989 L140.269311,36.1487448 C140.269311,41.2583181 143.259033,43.9347612 148.017834,43.9347612 C149.726246,43.9347612 151.068571,42.5965396 151.068571,40.8930029 C151.068571,39.1898118 149.726246,37.8515902 148.017834,37.8515902 C147.591078,37.8515902 146.858554,37.4869663 146.858554,36.7566817 L146.858554,3.4227989 C146.858554,1.59829691 145.394202,0.138073223 143.56376,0.138073223 L143.56376,0.138073223 Z M165.711757,20.8196793 C169.250611,20.8196793 171.264097,22.6445269 171.264097,25.3817984 L171.264097,26.4767069 L163.271168,26.4767069 C157.963234,26.4767069 153.386783,29.396463 153.386783,35.0538362 C153.386783,40.5280333 157.35274,44.2389025 163.332183,44.2389025 C166.993067,44.2389025 169.678061,43.326133 171.325459,40.7108637 C171.325459,42.4745375 172.789464,43.9347612 174.559239,43.9347612 C176.328318,43.9347612 177.792672,42.4745375 177.792672,40.7108637 L177.792672,25.1384854 C177.792672,18.691036 173.277582,14.980167 165.711757,14.980167 C160.464491,14.980167 157.414101,16.9874994 155.705342,18.8731752 C155.15621,19.4818034 154.912151,20.2113968 154.912151,20.8808532 C154.912151,22.4623878 156.19346,23.7394355 157.779844,23.7394355 C158.512366,23.7394355 159.000138,23.5572963 159.610632,23.1311529 C161.135653,22.0365901 163.027109,20.8196793 165.711757,20.8196793 L165.711757,20.8196793 Z M165.040942,38.7643597 C161.623771,38.7643597 159.976374,37.3649642 159.976374,35.0538362 C159.976374,32.864019 161.440726,31.5862801 164.125375,31.5862801 L171.264097,31.5862801 L171.264097,33.2894712 C171.264097,36.6961991 168.274375,38.7643597 165.040942,38.7643597 L165.040942,38.7643597 Z M185.723545,15.8317625 L184.320207,15.8317625 C182.794839,15.8317625 181.574545,17.0486732 181.574545,18.5690339 C181.574545,20.0900859 182.794839,21.3063053 184.320207,21.3063053 L185.723545,21.3063053 L185.723545,35.6617732 C185.723545,40.4675507 189.079355,43.9347612 194.509666,43.9347612 C196.096048,43.9347612 197.377358,42.6573679 197.377358,41.0754877 C197.377358,39.4939531 196.096048,38.2169054 194.509666,38.2169054 C193.411747,38.2169054 192.191107,37.426138 192.191107,36.0267426 L192.191107,21.3063053 L194.936768,21.3063053 C196.462138,21.3063053 197.682432,20.0900859 197.682432,18.5690339 C197.682432,17.0486732 196.462138,15.8317625 194.936768,15.8317625 L192.191107,15.8317625 L192.191107,10.7221893 C192.191107,8.95851556 190.726753,7.49829187 188.957327,7.49829187 C187.187899,7.49829187 185.723545,8.95851556 185.723545,10.7221893 L185.723545,15.8317625 Z M227.702021,29.6401216 C227.702021,19.6639424 222.576439,14.980167 214.339798,14.980167 C206.102463,14.980167 200.977227,19.6639424 200.977227,29.6401216 C200.977227,39.5547814 206.102463,44.2389025 214.339798,44.2389025 C222.576439,44.2389025 227.702021,39.5547814 227.702021,29.6401216 L227.702021,29.6401216 Z M221.051071,29.6401216 C221.051071,35.6012904 218.732858,38.6423576 214.339798,38.6423576 C209.946391,38.6423576 207.627831,35.6012904 207.627831,29.6401216 C207.627831,23.6181246 209.946391,20.5767119 214.339798,20.5767119 C218.732858,20.5767119 221.051071,23.6181246 221.051071,29.6401216 L221.051071,29.6401216 Z M239.110734,18.6298622 C239.110734,16.8053602 237.646382,15.3451365 235.81594,15.3451365 C233.985845,15.3451365 232.521145,16.8053602 232.521145,18.6298622 L232.521145,40.6500354 C232.521145,42.4745375 233.985845,43.9347612 235.81594,43.9347612 C237.646382,43.9347612 239.110734,42.4745375 239.110734,40.6500354 L239.110734,27.9977589 C239.110734,23.9222658 241.49031,21.2454772 245.700672,21.2454772 C247.408737,21.2454772 248.812075,19.8467729 248.812075,18.1435819 C248.812075,16.4400452 247.408737,15.0409953 245.700672,15.0409953 C243.137706,15.0409953 240.270361,16.5620473 239.110734,18.9343491 L239.110734,18.6298622 Z" id="Fill-1" fill="#15AD9E" fill-rule="nonzero" mask="url(#mask-2)"></path>
                                </g>
                            </g>
                            <g id="Group-6" transform="translate(83.201895, 0.259211)">
                                <g id="Fill-4-Clipped">
                                    <mask id="mask-4" fill="white">
                                        <use xlink:href="#path-3"></use>
                                    </mask>
                                    <g id="path-3"></g>
                                    <path d="M81.1299592,40.4986561 C81.1299592,18.1795258 62.9811993,0.0862309613 40.5936496,0.0862309613 C18.2060999,0.0862309613 0.0573399723,18.1795258 0.0573399723,40.4986561 C0.0573399723,62.8177865 18.2060999,80.9110812 40.5936496,80.9110812 C62.9811993,80.9110812 81.1299592,62.8177865 81.1299592,40.4986561 L81.1299592,40.4986561 Z M58.4300557,56.724247 C58.4300557,59.3028811 56.2893403,61.4367086 53.7031482,61.4367086 C51.1173026,61.4367086 48.9765871,59.3028811 48.9765871,56.724247 C46.5689324,60.547441 42.644923,61.8811696 37.2940011,61.8811696 C28.5539888,61.8811696 22.7572435,56.4574322 22.7572435,48.455752 C22.7572435,40.1876025 29.4459824,35.919602 37.2045591,35.919602 L44.3335747,35.919602 L44.3335747,43.3879981 L38.4532808,43.3879981 C34.5292716,43.3879981 32.3889028,45.2550108 32.3889028,48.455752 C32.3889028,51.834485 34.7969043,53.8791437 39.791098,53.8791437 C44.5180057,53.8791437 48.8874918,50.8563943 48.8874918,45.8778091 L48.8874918,44.5195419 L48.8874918,43.3879981 L48.8874918,35.919602 L48.8874918,34.3194041 C48.8874918,30.318564 45.9445714,27.6514526 40.7721871,27.6514526 C36.8481777,27.6514526 34.083448,29.4296421 31.8539839,31.0298399 C30.9619903,31.6522927 30.2488807,31.9187619 29.1786963,31.9187619 C26.8597902,31.9187619 24.9870543,30.0517493 24.9870543,27.7402756 C24.9870543,26.7621849 25.3437824,25.6952712 26.1463339,24.8063493 C28.6430842,22.0500691 33.1027057,19.1161426 40.7721871,19.1161426 C51.8304121,19.1161426 58.4300557,24.5395344 58.4300557,33.9637663 L58.4300557,56.724247 Z" id="Fill-4" fill="#14AD9E" fill-rule="nonzero" mask="url(#mask-4)"></path>
                                </g>
                            </g>
                            <path d="M210.2032,68.5704328 C209.887033,68.5704328 209.610386,68.8462336 209.610386,69.1614346 L209.610386,92.6833054 C209.610386,95.4807139 210.914577,96.9385182 213.285831,96.9385182 C213.562129,96.9385182 213.799602,96.7021174 213.799602,96.4263166 C213.799602,96.1505159 213.562129,95.9141151 213.285831,95.9141151 C211.586085,95.9141151 210.796014,94.9685123 210.796014,92.6833054 L210.796014,69.1614346 C210.796014,68.8462336 210.519368,68.5704328 210.2032,68.5704328 L210.2032,68.5704328 Z M218.107034,78.4204625 C217.790866,78.4204625 217.51422,78.6962633 217.51422,79.0114643 L217.51422,96.3475164 C217.51422,96.6627173 217.790866,96.9385182 218.107034,96.9385182 C218.4232,96.9385182 218.699847,96.6627173 218.699847,96.3475164 L218.699847,79.0114643 C218.699847,78.6962633 218.4232,78.4204625 218.107034,78.4204625 L218.107034,78.4204625 Z M218.107034,73.2984471 C218.581284,73.2984471 218.818409,73.0620463 218.818409,72.4710445 C218.818409,71.8800428 218.581284,71.6436421 218.107034,71.6436421 C217.632783,71.6436421 217.395658,71.8800428 217.395658,72.4710445 C217.395658,73.0620463 217.632783,73.2984471 218.107034,73.2984471 L218.107034,73.2984471 Z M225.220102,78.7356634 L222.770153,78.7356634 C222.493507,78.7356634 222.256381,78.9720642 222.256381,79.247865 C222.256381,79.5236657 222.493507,79.7600665 222.770153,79.7600665 L225.220102,79.7600665 L225.220102,92.2893041 C225.220102,94.9685123 226.801284,96.9385182 229.685963,96.9385182 C229.962957,96.9385182 230.200082,96.7021174 230.200082,96.4263166 C230.200082,96.1505159 229.962957,95.9141151 229.685963,95.9141151 C227.74944,95.9141151 226.405729,94.6533113 226.405729,92.2893041 L226.405729,79.7600665 L229.962957,79.7600665 C230.239604,79.7600665 230.476382,79.5236657 230.476382,79.247865 C230.476382,78.9720642 230.239604,78.7356634 229.962957,78.7356634 L226.405729,78.7356634 L226.405729,73.928849 C226.405729,73.613648 226.129082,73.3378472 225.812916,73.3378472 C225.496749,73.3378472 225.220102,73.613648 225.220102,73.928849 L225.220102,78.7356634 Z M233.519838,87.6400902 C233.519838,94.2987103 236.760205,97.1355188 242.016831,97.1355188 C245.652754,97.1355188 247.549757,95.5595141 248.182091,94.9685123 C248.300655,94.850312 248.418871,94.7321115 248.418871,94.535111 C248.418871,94.2593102 248.182091,94.0229094 247.905445,94.0229094 C247.786882,94.0229094 247.707841,94.0623095 247.589278,94.1411097 C246.443172,95.0867126 244.980553,96.1111156 242.016831,96.1111156 C237.392886,96.1111156 234.744986,93.4713077 234.744986,87.7976906 L248.063528,87.7976906 C248.576955,87.7976906 248.853601,87.6006901 248.932989,87.1672887 C249.011683,86.6944874 249.011683,86.1428857 249.011683,85.7094844 C249.011683,83.0696765 248.142571,78.1840617 241.582101,78.1840617 C236.523426,78.1840617 233.519838,81.5330719 233.519838,87.6400902 L233.519838,87.6400902 Z M247.865925,85.7094844 C247.865925,86.0246854 247.826057,86.8126877 247.826057,86.8126877 L234.744986,86.8126877 C234.90307,82.1240737 237.11624,79.2084648 241.582101,79.2084648 C246.64043,79.2084648 247.865925,82.5574749 247.865925,85.7094844 L247.865925,85.7094844 Z" id="Fill-7" fill="#15AD9E" fill-rule="nonzero"></path>
                            <g id="beta-copy" transform="translate(227.077919, 142.582964)" fill-rule="nonzero" fill="#15AD9E">
                                <path d="M1.57886409,7.2258869 C1.57886409,8.1004538 2.10858453,8.59468336 2.85817888,8.59468336 C3.74885455,8.59468336 4.23971107,7.96096195 4.23971107,6.71859632 C4.23971107,5.46369209 3.73607736,4.82997067 2.85817888,4.82997067 C2.08249778,4.82997067 1.57886409,5.47675312 1.57886409,5.47675312 L1.57886409,7.2258869 Z M5.62177564,6.71859632 C5.62177564,8.78485203 4.60173107,9.76077254 2.85817888,9.76077254 C1.2951043,9.76077254 0.184022339,8.91180529 0.184022339,7.2258869 L0.184022339,1.25594911 C0.184022339,0.875611774 0.493868865,0.571550884 0.881975597,0.571550884 C1.26901756,0.571550884 1.57886409,0.875611774 1.57886409,1.25594911 L1.57886409,4.17117209 C1.83760192,3.91778801 2.38009952,3.66388149 2.99979257,3.66388149 C4.62728541,3.66388149 5.62177564,4.65286304 5.62177564,6.71859632 L5.62177564,6.71859632 Z" id="Fill-20"></path>
                                <path d="M7.83222714,6.05979772 L10.3897919,6.05979772 C10.3897919,5.4386149 10.0277719,4.82997067 9.18873737,4.82997067 C8.43967541,4.82997067 7.89664541,5.24844623 7.83222714,6.05979772 Z M9.18873737,3.66388149 C11.371505,3.66388149 11.7718565,5.31166164 11.7718565,6.18622854 C11.7718565,6.65538091 11.7718565,7.20028727 10.9839306,7.20028727 L7.79336324,7.20028727 C7.79336324,8.11299239 8.4519202,8.53146795 9.30479672,8.53146795 C9.87284868,8.53146795 10.2732002,8.34129928 10.5835791,8.13859202 C10.7257252,8.04977698 10.8290074,7.99910017 10.9972402,7.99910017 C11.3326411,7.99910017 11.6036237,8.26502284 11.6036237,8.59468336 C11.6036237,8.79739062 11.5008739,8.96248209 11.3842822,9.06383572 C11.1649406,9.26654298 10.4802969,9.76077254 9.30479672,9.76077254 C7.50960344,9.76077254 6.39852148,8.80992921 6.39852148,6.69351912 C6.39852148,4.75421667 7.43187562,3.66388149 9.18873737,3.66388149 L9.18873737,3.66388149 Z" id="Fill-21"></path>
                                <path d="M13.1949145,2.776776 C13.1949145,2.40897727 13.5047611,2.10491638 13.8790259,2.10491638 C14.253823,2.10491638 14.5636696,2.40897727 14.5636696,2.776776 L14.5636696,3.84151156 L15.1450311,3.84151156 C15.4676548,3.84151156 15.7258602,4.09489564 15.7258602,4.41201756 C15.7258602,4.72861704 15.4676548,4.98252356 15.1450311,4.98252356 L14.5636696,4.98252356 L14.5636696,8.04977698 C14.5636696,8.34129928 14.821875,8.50586832 15.0545261,8.50586832 C15.3904594,8.50586832 15.6614419,8.77231342 15.6614419,9.10145151 C15.6614419,9.43111202 15.3904594,9.69703469 15.0545261,9.69703469 C13.9051126,9.69703469 13.1949145,8.97502068 13.1949145,7.97350054 L13.1949145,4.98252356 L12.8973128,4.98252356 C12.5746891,4.98252356 12.3159513,4.72861704 12.3159513,4.41201756 C12.3159513,4.09489564 12.5746891,3.84151156 12.8973128,3.84151156 L13.1949145,3.84151156 L13.1949145,2.776776" id="Fill-22"></path>
                                <path d="M20.1829652,7.47927098 L20.1829652,7.12453327 L18.6720641,7.12453327 C18.1034798,7.12453327 17.7936332,7.39045594 17.7936332,7.84706972 C17.7936332,8.32823825 18.1423437,8.61976054 18.8658513,8.61976054 C19.550495,8.61976054 20.1829652,8.18926884 20.1829652,7.47927098 Z M17.7164378,5.36233845 C17.5870689,5.45115349 17.4837868,5.48929172 17.3288635,5.48929172 C16.9929303,5.48929172 16.7219476,5.22336905 16.7219476,4.89370853 C16.7219476,4.75421667 16.7730562,4.60218623 16.889648,4.47523298 C17.2511357,4.08235705 17.8974479,3.66388149 19.0074651,3.66388149 C20.6094036,3.66388149 21.5650298,4.43709474 21.5650298,5.78081401 L21.5650298,9.0256975 C21.5650298,9.3929738 21.2551832,9.69703469 20.8809185,9.69703469 C20.5061213,9.69703469 20.1962749,9.3929738 20.1962749,9.0256975 C19.8475643,9.57060387 19.27898,9.76077254 18.5038312,9.76077254 C17.2383585,9.76077254 16.3987915,8.98755929 16.3987915,7.84706972 C16.3987915,6.66791949 17.367195,6.05979772 18.4910541,6.05979772 L20.1829652,6.05979772 L20.1829652,5.83149083 C20.1829652,5.26098482 19.7570594,4.88064749 19.0074651,4.88064749 C18.4394131,4.88064749 18.0390615,5.13455401 17.7164378,5.36233845 L17.7164378,5.36233845 Z" id="Fill-23"></path>
                            </g>
                        </g>
                    </g>
                </g>
            </g>
        </g>
    </g>
</svg>